<svg width="644" height="463" viewBox="0 0 644 463" fill="none" xmlns="http://www.w3.org/2000/svg">
<path d="M628.729 122C637.159 122 644 128.832 644 137.25V152.835C644 177.022 615.718 183 594.645 183L561.476 122H628.729ZM584.719 228.933C604.235 265.106 613.611 297.619 613.611 340.746C613.611 382.531 601.486 418.002 582.917 462.166V518.5C582.917 535.336 569.234 549 552.375 549H506.562C489.703 549 476.021 535.336 476.021 518.5V488H78.9792V518.5C78.9792 535.336 65.2965 549 48.4375 549H2.625C-14.234 549 -27.9167 535.336 -27.9167 518.5V462.166C-46.486 418.002 -58.611 382.531 -58.611 340.746C-58.611 297.619 -49.2348 265.106 -29.7186 228.933C-4.39959 182.054 26.814 123.617 59.7684 68.747C85.0569 26.596 98.312 16.6835 129.342 11.1325C176.132 2.745 218.463 0 277.5 0C336.537 0 378.868 2.745 425.658 11.1325C456.688 16.6835 469.943 26.596 495.232 68.747C528.186 123.617 559.4 182.054 584.719 228.933V228.933ZM94.25 320.25C94.25 294.996 73.726 274.5 48.4375 274.5C23.149 274.5 2.625 294.996 2.625 320.25C2.625 345.504 23.149 366 48.4375 366C73.726 366 94.25 345.504 94.25 320.25ZM399.667 350.75C399.667 342.332 392.825 335.5 384.396 335.5H170.604C162.175 335.5 155.333 342.332 155.333 350.75C155.333 359.168 162.175 366 170.604 366H384.396C392.825 366 399.667 359.168 399.667 350.75ZM489.49 182.176C489.49 182.176 466.889 126.483 439.676 86.3455C433.507 77.2565 423.947 71.0345 413.136 69.0825C366.987 60.7865 326.55 58.133 277.5 58.133C228.45 58.133 188.013 60.7865 141.864 69.0825C131.053 71.004 121.493 77.226 115.324 86.3455C88.1111 126.453 65.5103 182.176 65.5103 182.176C115.599 191.723 197.114 197.335 277.5 197.335C357.886 197.335 439.401 191.723 489.49 182.176ZM552.375 320.25C552.375 294.996 531.851 274.5 506.562 274.5C481.274 274.5 460.75 294.996 460.75 320.25C460.75 345.504 481.274 366 506.562 366C531.851 366 552.375 345.504 552.375 320.25ZM-6.47642 122H-73.7292C-82.1587 122 -89 128.832 -89 137.25V152.835C-89 177.022 -60.7184 183 -39.6447 183L-6.47642 122Z" fill="url(#paint0_linear)" fill-opacity="0.5"/>
<defs>
<linearGradient id="paint0_linear" x1="605.823" y1="40.6667" x2="66.7011" y2="397.177" gradientUnits="userSpaceOnUse">
<stop stop-color="#2E3AAA"/>
<stop offset="1" stop-color="#3EE0D6"/>
</linearGradient>
</defs>
</svg>
