<svg width="439" height="375" viewBox="0 0 439 375" fill="none" xmlns="http://www.w3.org/2000/svg">
<path d="M527.771 60.7778C533.969 60.7778 539 65.8053 539 72V83.4691C539 101.268 518.204 105.667 502.707 105.667L478.318 60.7778H527.771ZM495.408 139.468C509.759 166.087 516.654 190.013 516.654 221.749C516.654 252.498 507.738 278.601 494.083 311.101V352.556C494.083 364.945 484.022 375 471.625 375H437.938C425.541 375 415.479 364.945 415.479 352.556V330.111H123.521V352.556C123.521 364.945 113.46 375 101.063 375H67.375C54.978 375 44.9167 364.945 44.9167 352.556V311.101C31.262 278.601 22.346 252.498 22.346 221.749C22.346 190.013 29.2408 166.087 43.5916 139.468C62.2096 104.971 85.162 61.9673 109.395 21.5898C127.99 -9.42844 137.737 -16.7229 160.555 -20.8078C194.961 -26.98 226.088 -29 269.5 -29C312.912 -29 344.039 -26.98 378.445 -20.8078C401.263 -16.7229 411.01 -9.42844 429.605 21.5898C453.838 61.9673 476.79 104.971 495.408 139.468V139.468ZM134.75 206.667C134.75 188.083 119.658 173 101.063 173C82.467 173 67.375 188.083 67.375 206.667C67.375 225.251 82.467 240.333 101.063 240.333C119.658 240.333 134.75 225.251 134.75 206.667ZM359.333 229.111C359.333 222.916 354.303 217.889 348.104 217.889H190.896C184.697 217.889 179.667 222.916 179.667 229.111C179.667 235.306 184.697 240.333 190.896 240.333H348.104C354.303 240.333 359.333 235.306 359.333 229.111ZM425.383 105.061C425.383 105.061 408.764 64.0771 388.754 34.5402C384.217 27.8518 377.188 23.2731 369.237 21.8367C335.303 15.7318 305.568 13.7791 269.5 13.7791C233.432 13.7791 203.697 15.7318 169.763 21.8367C161.812 23.2507 154.783 27.8293 150.246 34.5402C130.236 64.0547 113.617 105.061 113.617 105.061C150.448 112.086 210.39 116.216 269.5 116.216C328.61 116.216 388.552 112.086 425.383 105.061ZM471.625 206.667C471.625 188.083 456.533 173 437.938 173C419.342 173 404.25 188.083 404.25 206.667C404.25 225.251 419.342 240.333 437.938 240.333C456.533 240.333 471.625 225.251 471.625 206.667ZM60.6824 60.7778H11.2292C5.03067 60.7778 0 65.8053 0 72V83.4691C0 101.268 20.7964 105.667 36.2927 105.667L60.6824 60.7778Z" fill="#C4C4C4"/>
</svg>
