<svg width="432" height="250" viewBox="0 0 432 250" fill="none" xmlns="http://www.w3.org/2000/svg">
<path d="M388.57 94.6346C362.696 87.1346 352.362 84.2885 320.342 76.9231C320.342 76.9231 274.645 31.5577 265.944 22.7692C255.034 11.7692 245.91 0 209.299 0H57.668C47.8525 0 43.5307 10.5192 56.3234 19.2308C42.0708 30.8077 25.2251 45.7692 12.951 58.2115C-14.613 86.1923 -29 104.077 -29 140.038C-29 173.885 -8.98491 211.538 31.9673 211.538H32.1593C40.0924 233.885 61.2023 250 86.25 250C111.298 250 132.408 233.885 140.341 211.538H262.64C270.573 233.885 291.683 250 316.731 250C341.778 250 362.888 233.885 370.821 211.538H383.979C422.281 211.538 432 177.385 432 150.673C432 111.423 410.429 100.981 388.57 94.6346ZM86.25 215.385C73.5341 215.385 63.2 205.038 63.2 192.308C63.2 179.577 73.5341 169.231 86.25 169.231C98.9659 169.231 109.3 179.577 109.3 192.308C109.3 205.038 98.9659 215.385 86.25 215.385ZM154.939 96.1539C134.367 96.1539 87.7098 94.1154 54.6907 81.7308C65.7931 67.3077 73.8606 58.2308 79.0853 52.1923C85.1935 45.1154 95.8542 38.4615 109.07 38.4615H154.939V96.1539ZM174.147 38.4615H209.395C226.336 38.4615 236.824 47.9423 248.234 59.7115C256.916 68.6731 281.503 96.1539 281.503 96.1539H174.167V38.4615H174.147ZM316.75 215.385C304.034 215.385 293.7 205.038 293.7 192.308C293.7 179.577 304.034 169.231 316.75 169.231C329.466 169.231 339.8 179.577 339.8 192.308C339.8 205.038 329.466 215.385 316.75 215.385Z" fill="#C4C4C4"/>
</svg>
