<svg width="417" height="229" viewBox="0 0 417 229" fill="none" xmlns="http://www.w3.org/2000/svg">
<path d="M373.57 94.6346C347.696 87.1346 337.362 84.2885 305.342 76.9231C305.342 76.9231 259.645 31.5577 250.944 22.7692C240.034 11.7692 230.91 0 194.299 0H42.668C32.8525 0 28.5307 10.5192 41.3234 19.2308C27.0708 30.8077 10.2251 45.7692 -2.049 58.2115C-29.613 86.1923 -44 104.077 -44 140.038C-44 173.885 -23.9849 211.538 16.9673 211.538H17.1593C25.0924 233.885 46.2023 250 71.25 250C96.2977 250 117.408 233.885 125.341 211.538H247.64C255.573 233.885 276.683 250 301.731 250C326.778 250 347.888 233.885 355.821 211.538H368.979C407.281 211.538 417 177.385 417 150.673C417 111.423 395.429 100.981 373.57 94.6346V94.6346ZM71.25 215.385C58.5341 215.385 48.2 205.038 48.2 192.308C48.2 179.577 58.5341 169.231 71.25 169.231C83.9659 169.231 94.3 179.577 94.3 192.308C94.3 205.038 83.9659 215.385 71.25 215.385ZM139.939 96.1539C119.367 96.1539 72.7098 94.1154 39.6907 81.7308C50.7931 67.3077 58.8606 58.2308 64.0853 52.1923C70.1935 45.1154 80.8542 38.4615 94.0695 38.4615H139.939V96.1539ZM159.147 38.4615H194.395C211.336 38.4615 221.824 47.9423 233.234 59.7115C241.916 68.6731 266.503 96.1539 266.503 96.1539H159.167V38.4615H159.147ZM301.75 215.385C289.034 215.385 278.7 205.038 278.7 192.308C278.7 179.577 289.034 169.231 301.75 169.231C314.466 169.231 324.8 179.577 324.8 192.308C324.8 205.038 314.466 215.385 301.75 215.385Z" fill="url(#paint0_linear)"/>
<defs>
<linearGradient id="paint0_linear" x1="417" y1="-1.32999e-05" x2="-66.1358" y2="249.924" gradientUnits="userSpaceOnUse">
<stop stop-color="#2E3AAA"/>
<stop offset="1" stop-color="#3EE0D6"/>
</linearGradient>
</defs>
</svg>
