<svg width="200" height="200" viewBox="0 0 200 200" fill="none" xmlns="http://www.w3.org/2000/svg">
<path d="M112.275 59.9666C108.733 56.3083 108.933 50.575 112.567 47.0333L149.742 10.9833C151.558 9.22498 153.892 8.33331 156.2 8.33331C158.55 8.33331 160.892 9.24998 162.667 11.0916L112.275 59.9666V59.9666ZM51.1583 151.808C50.3917 152.55 50 153.542 50 154.533C50 156.617 51.7 158.333 53.8 158.333C54.75 158.333 55.7083 157.983 56.4417 157.267L62.6833 151.192L57.4083 145.742L51.1583 151.808V151.808ZM103.908 81.6L82.5417 102.308C71.0583 113.442 65.2 124.225 59.7917 139.283L69.225 149.025C84.4333 144.083 95.3917 138.567 106.875 127.433L128.233 106.717L103.908 81.6V81.6ZM166.217 17.775L111.183 71.15L138.9 99.7666L193.933 46.4083C197.975 42.5 200 37.3 200 32.0916C200 14.6916 178.917 5.45831 166.217 17.775V17.775ZM150 112.217V175H16.6667V75H83.4417L100.592 58.3333H0V191.667H166.667V96.0583L150 112.217V112.217Z" fill="url(#paint0_linear)"/>
<defs>
<linearGradient id="paint0_linear" x1="200" y1="7.99999" x2="-1.00987e-06" y2="192" gradientUnits="userSpaceOnUse">
<stop stop-color="#2E3AAA" stop-opacity="0.7"/>
<stop offset="1" stop-color="#3EE0D6" stop-opacity="0.7"/>
</linearGradient>
</defs>
</svg>
